<svg width="69" height="72" viewBox="0 0 69 72" fill="none" xmlns="http://www.w3.org/2000/svg">
<path d="M1.80263 25.7455C1.80263 23.8415 2.23197 22.1335 3.09063 20.6215C3.9493 19.0908 5.11597 17.8961 6.59063 17.0375C8.08397 16.1788 9.73597 15.7495 11.5466 15.7495C13.6746 15.7495 15.532 16.2628 17.1186 17.2895C18.7053 18.3161 19.8626 19.7721 20.5906 21.6575H17.5386C16.9973 20.4815 16.2133 19.5761 15.1866 18.9415C14.1786 18.3068 12.9653 17.9895 11.5466 17.9895C10.184 17.9895 8.9613 18.3068 7.87863 18.9415C6.79597 19.5761 5.94663 20.4815 5.33063 21.6575C4.71463 22.8148 4.40663 24.1775 4.40663 25.7455C4.40663 27.2948 4.71463 28.6575 5.33063 29.8335C5.94663 30.9908 6.79597 31.8868 7.87863 32.5215C8.9613 33.1561 10.184 33.4735 11.5466 33.4735C12.9653 33.4735 14.1786 33.1655 15.1866 32.5495C16.2133 31.9148 16.9973 31.0095 17.5386 29.8335H20.5906C19.8626 31.7001 18.7053 33.1468 17.1186 34.1735C15.532 35.1815 13.6746 35.6855 11.5466 35.6855C9.73597 35.6855 8.08397 35.2655 6.59063 34.4255C5.11597 33.5668 3.9493 32.3815 3.09063 30.8695C2.23197 29.3575 1.80263 27.6495 1.80263 25.7455ZM33.2315 35.7135C31.4209 35.7135 29.7689 35.2935 28.2755 34.4535C26.7822 33.5948 25.5969 32.4095 24.7195 30.8975C23.8609 29.3668 23.4315 27.6495 23.4315 25.7455C23.4315 23.8415 23.8609 22.1335 24.7195 20.6215C25.5969 19.0908 26.7822 17.9055 28.2755 17.0655C29.7689 16.2068 31.4209 15.7775 33.2315 15.7775C35.0609 15.7775 36.7222 16.2068 38.2155 17.0655C39.7089 17.9055 40.8849 19.0815 41.7435 20.5935C42.6022 22.1055 43.0315 23.8228 43.0315 25.7455C43.0315 27.6681 42.6022 29.3855 41.7435 30.8975C40.8849 32.4095 39.7089 33.5948 38.2155 34.4535C36.7222 35.2935 35.0609 35.7135 33.2315 35.7135ZM33.2315 33.5015C34.5942 33.5015 35.8169 33.1841 36.8995 32.5495C38.0009 31.9148 38.8595 31.0095 39.4755 29.8335C40.1102 28.6575 40.4275 27.2948 40.4275 25.7455C40.4275 24.1775 40.1102 22.8148 39.4755 21.6575C38.8595 20.4815 38.0102 19.5761 36.9275 18.9415C35.8449 18.3068 34.6129 17.9895 33.2315 17.9895C31.8502 17.9895 30.6182 18.3068 29.5355 18.9415C28.4529 19.5761 27.5942 20.4815 26.9595 21.6575C26.3435 22.8148 26.0355 24.1775 26.0355 25.7455C26.0355 27.2948 26.3435 28.6575 26.9595 29.8335C27.5942 31.0095 28.4529 31.9148 29.5355 32.5495C30.6369 33.1841 31.8689 33.5015 33.2315 33.5015ZM45.0961 39.2911C46.5185 38.1487 47.6329 37.2135 48.4393 36.4855C49.2457 35.7463 49.9233 34.9791 50.4721 34.1839C51.0321 33.3775 51.3121 32.5879 51.3121 31.8151C51.3121 31.0871 51.1329 30.5159 50.7745 30.1015C50.4273 29.6759 49.8617 29.4631 49.0777 29.4631C48.3161 29.4631 47.7225 29.7039 47.2969 30.1855C46.8825 30.6559 46.6585 31.2887 46.6249 32.0839H45.1465C45.1913 30.8295 45.5721 29.8607 46.2889 29.1775C47.0057 28.4943 47.9297 28.1527 49.0609 28.1527C50.2145 28.1527 51.1273 28.4719 51.7993 29.1103C52.4825 29.7487 52.8241 30.6279 52.8241 31.7479C52.8241 32.6775 52.5441 33.5847 51.9841 34.4695C51.4353 35.3431 50.8081 36.1159 50.1025 36.7879C49.3969 37.4487 48.4953 38.2215 47.3977 39.1063H53.1769V40.3831H45.0961V39.2911Z" fill="white"/>
<path d="M35.1019 21.8341L43.7622 6.83408L26.4417 6.83408L35.1019 21.8341ZM33.6019 8.15523e-08L33.6019 8.33408L36.6019 8.33408L36.6019 -8.15523e-08L33.6019 8.15523e-08Z" fill="white"/>
</svg>
