<svg width="199" height="46" viewBox="0 0 199 46" fill="none" xmlns="http://www.w3.org/2000/svg">
<path d="M10 1.35C5.22274 1.35 1.35 5.22274 1.35 10V36C1.35 40.7773 5.22274 44.65 10 44.65H189C193.777 44.65 197.65 40.7773 197.65 36V10C197.65 5.22274 193.777 1.35 189 1.35H10Z" fill="white"/>
<path d="M10 1.35C5.22274 1.35 1.35 5.22274 1.35 10V36C1.35 40.7773 5.22274 44.65 10 44.65H189C193.777 44.65 197.65 40.7773 197.65 36V10C197.65 5.22274 193.777 1.35 189 1.35H10Z" stroke="#B8BBC2" stroke-width="1.3"/>
<path d="M25.232 27L23.312 23.664H22.268V27H20.9V18.66H23.78C24.42 18.66 24.96 18.772 25.4 18.996C25.848 19.22 26.18 19.52 26.396 19.896C26.62 20.272 26.732 20.692 26.732 21.156C26.732 21.7 26.572 22.196 26.252 22.644C25.94 23.084 25.456 23.384 24.8 23.544L26.864 27H25.232ZM22.268 22.572H23.78C24.292 22.572 24.676 22.444 24.932 22.188C25.196 21.932 25.328 21.588 25.328 21.156C25.328 20.724 25.2 20.388 24.944 20.148C24.688 19.9 24.3 19.776 23.78 19.776H22.268V22.572ZM34.902 23.532C34.902 23.78 34.886 24.004 34.854 24.204H29.802C29.842 24.732 30.038 25.156 30.39 25.476C30.742 25.796 31.174 25.956 31.686 25.956C32.422 25.956 32.942 25.648 33.246 25.032H34.722C34.522 25.64 34.158 26.14 33.63 26.532C33.11 26.916 32.462 27.108 31.686 27.108C31.054 27.108 30.486 26.968 29.982 26.688C29.486 26.4 29.094 26 28.806 25.488C28.526 24.968 28.386 24.368 28.386 23.688C28.386 23.008 28.522 22.412 28.794 21.9C29.074 21.38 29.462 20.98 29.958 20.7C30.462 20.42 31.038 20.28 31.686 20.28C32.31 20.28 32.866 20.416 33.354 20.688C33.842 20.96 34.222 21.344 34.494 21.84C34.766 22.328 34.902 22.892 34.902 23.532ZM33.474 23.1C33.466 22.596 33.286 22.192 32.934 21.888C32.582 21.584 32.146 21.432 31.626 21.432C31.154 21.432 30.75 21.584 30.414 21.888C30.078 22.184 29.878 22.588 29.814 23.1H33.474ZM37.9763 21.36C38.2083 21.056 38.5243 20.8 38.9243 20.592C39.3243 20.384 39.7763 20.28 40.2803 20.28C40.8563 20.28 41.3803 20.424 41.8523 20.712C42.3323 20.992 42.7083 21.388 42.9803 21.9C43.2523 22.412 43.3883 23 43.3883 23.664C43.3883 24.328 43.2523 24.924 42.9803 25.452C42.7083 25.972 42.3323 26.38 41.8523 26.676C41.3803 26.964 40.8563 27.108 40.2803 27.108C39.7763 27.108 39.3283 27.008 38.9363 26.808C38.5443 26.6 38.2243 26.344 37.9763 26.04V30.144H36.6083V20.388H37.9763V21.36ZM41.9963 23.664C41.9963 23.208 41.9003 22.816 41.7083 22.488C41.5243 22.152 41.2763 21.9 40.9643 21.732C40.6603 21.556 40.3323 21.468 39.9803 21.468C39.6363 21.468 39.3083 21.556 38.9963 21.732C38.6923 21.908 38.4443 22.164 38.2523 22.5C38.0683 22.836 37.9763 23.232 37.9763 23.688C37.9763 24.144 38.0683 24.544 38.2523 24.888C38.4443 25.224 38.6923 25.48 38.9963 25.656C39.3083 25.832 39.6363 25.92 39.9803 25.92C40.3323 25.92 40.6603 25.832 40.9643 25.656C41.2763 25.472 41.5243 25.208 41.7083 24.864C41.9003 24.52 41.9963 24.12 41.9963 23.664ZM47.9691 27.108C47.3451 27.108 46.7811 26.968 46.2771 26.688C45.7731 26.4 45.3771 26 45.0891 25.488C44.8011 24.968 44.6571 24.368 44.6571 23.688C44.6571 23.016 44.8051 22.42 45.1011 21.9C45.3971 21.38 45.8011 20.98 46.3131 20.7C46.8251 20.42 47.3971 20.28 48.0291 20.28C48.6611 20.28 49.2331 20.42 49.7451 20.7C50.2571 20.98 50.6611 21.38 50.9571 21.9C51.2531 22.42 51.4011 23.016 51.4011 23.688C51.4011 24.36 51.2491 24.956 50.9451 25.476C50.6411 25.996 50.2251 26.4 49.6971 26.688C49.1771 26.968 48.6011 27.108 47.9691 27.108ZM47.9691 25.92C48.3211 25.92 48.6491 25.836 48.9531 25.668C49.2651 25.5 49.5171 25.248 49.7091 24.912C49.9011 24.576 49.9971 24.168 49.9971 23.688C49.9971 23.208 49.9051 22.804 49.7211 22.476C49.5371 22.14 49.2931 21.888 48.9891 21.72C48.6851 21.552 48.3571 21.468 48.0051 21.468C47.6531 21.468 47.3251 21.552 47.0211 21.72C46.7251 21.888 46.4891 22.14 46.3131 22.476C46.1371 22.804 46.0491 23.208 46.0491 23.688C46.0491 24.4 46.2291 24.952 46.5891 25.344C46.9571 25.728 47.4171 25.92 47.9691 25.92ZM54.4814 21.348C54.6814 21.012 54.9454 20.752 55.2734 20.568C55.6094 20.376 56.0054 20.28 56.4614 20.28V21.696H56.1134C55.5774 21.696 55.1694 21.832 54.8894 22.104C54.6174 22.376 54.4814 22.848 54.4814 23.52V27H53.1134V20.388H54.4814V21.348ZM59.6749 21.504V25.164C59.6749 25.412 59.7309 25.592 59.8429 25.704C59.9629 25.808 60.1629 25.86 60.4429 25.86H61.2829V27H60.2029C59.5869 27 59.1149 26.856 58.7869 26.568C58.4589 26.28 58.2949 25.812 58.2949 25.164V21.504H57.5149V20.388H58.2949V18.744H59.6749V20.388H61.2829V21.504H59.6749ZM63.5997 19.512C63.3517 19.512 63.1437 19.428 62.9757 19.26C62.8077 19.092 62.7237 18.884 62.7237 18.636C62.7237 18.388 62.8077 18.18 62.9757 18.012C63.1437 17.844 63.3517 17.76 63.5997 17.76C63.8397 17.76 64.0437 17.844 64.2118 18.012C64.3798 18.18 64.4638 18.388 64.4638 18.636C64.4638 18.884 64.3798 19.092 64.2118 19.26C64.0437 19.428 63.8397 19.512 63.5997 19.512ZM64.2717 20.388V27H62.9037V20.388H64.2717ZM69.7638 20.28C70.2838 20.28 70.7478 20.388 71.1558 20.604C71.5718 20.82 71.8958 21.14 72.1278 21.564C72.3598 21.988 72.4758 22.5 72.4758 23.1V27H71.1198V23.304C71.1198 22.712 70.9718 22.26 70.6758 21.948C70.3798 21.628 69.9758 21.468 69.4638 21.468C68.9518 21.468 68.5438 21.628 68.2398 21.948C67.9438 22.26 67.7958 22.712 67.7958 23.304V27H66.4278V20.388H67.7958V21.144C68.0198 20.872 68.3038 20.66 68.6478 20.508C68.9998 20.356 69.3718 20.28 69.7638 20.28ZM77.2448 20.28C77.7568 20.28 78.2088 20.384 78.6008 20.592C79.0008 20.792 79.3128 21.044 79.5368 21.348V20.388H80.9168V27.108C80.9168 27.716 80.7888 28.256 80.5328 28.728C80.2768 29.208 79.9048 29.584 79.4168 29.856C78.9368 30.128 78.3608 30.264 77.6888 30.264C76.7928 30.264 76.0488 30.052 75.4568 29.628C74.8648 29.212 74.5288 28.644 74.4488 27.924H75.8048C75.9088 28.268 76.1288 28.544 76.4648 28.752C76.8088 28.968 77.2168 29.076 77.6888 29.076C78.2408 29.076 78.6848 28.908 79.0208 28.572C79.3648 28.236 79.5368 27.748 79.5368 27.108V26.004C79.3048 26.316 78.9888 26.58 78.5888 26.796C78.1968 27.004 77.7488 27.108 77.2448 27.108C76.6688 27.108 76.1408 26.964 75.6608 26.676C75.1888 26.38 74.8128 25.972 74.5328 25.452C74.2608 24.924 74.1248 24.328 74.1248 23.664C74.1248 23 74.2608 22.412 74.5328 21.9C74.8128 21.388 75.1888 20.992 75.6608 20.712C76.1408 20.424 76.6688 20.28 77.2448 20.28ZM79.5368 23.688C79.5368 23.232 79.4408 22.836 79.2488 22.5C79.0648 22.164 78.8208 21.908 78.5168 21.732C78.2128 21.556 77.8848 21.468 77.5328 21.468C77.1808 21.468 76.8528 21.556 76.5488 21.732C76.2448 21.9 75.9968 22.152 75.8048 22.488C75.6208 22.816 75.5288 23.208 75.5288 23.664C75.5288 24.12 75.6208 24.52 75.8048 24.864C75.9968 25.208 76.2448 25.472 76.5488 25.656C76.8608 25.832 77.1888 25.92 77.5328 25.92C77.8848 25.92 78.2128 25.832 78.5168 25.656C78.8208 25.48 79.0648 25.224 79.2488 24.888C79.4408 24.544 79.5368 24.144 79.5368 23.688ZM92.7308 18.66L89.9708 23.976V27H88.6028V23.976L85.8308 18.66H87.3548L89.2868 22.752L91.2188 18.66H92.7308ZM100.236 23.532C100.236 23.78 100.22 24.004 100.188 24.204H95.1364C95.1764 24.732 95.3724 25.156 95.7244 25.476C96.0764 25.796 96.5084 25.956 97.0204 25.956C97.7564 25.956 98.2764 25.648 98.5804 25.032H100.056C99.8564 25.64 99.4924 26.14 98.9644 26.532C98.4444 26.916 97.7964 27.108 97.0204 27.108C96.3884 27.108 95.8204 26.968 95.3164 26.688C94.8204 26.4 94.4284 26 94.1404 25.488C93.8604 24.968 93.7204 24.368 93.7204 23.688C93.7204 23.008 93.8564 22.412 94.1284 21.9C94.4084 21.38 94.7964 20.98 95.2924 20.7C95.7964 20.42 96.3724 20.28 97.0204 20.28C97.6444 20.28 98.2004 20.416 98.6884 20.688C99.1764 20.96 99.5564 21.344 99.8284 21.84C100.1 22.328 100.236 22.892 100.236 23.532ZM98.8084 23.1C98.8004 22.596 98.6204 22.192 98.2684 21.888C97.9164 21.584 97.4804 21.432 96.9604 21.432C96.4884 21.432 96.0844 21.584 95.7484 21.888C95.4124 22.184 95.2124 22.588 95.1484 23.1H98.8084ZM101.487 23.664C101.487 23 101.623 22.412 101.895 21.9C102.175 21.388 102.551 20.992 103.023 20.712C103.503 20.424 104.031 20.28 104.607 20.28C105.127 20.28 105.579 20.384 105.963 20.592C106.355 20.792 106.667 21.044 106.899 21.348V20.388H108.279V27H106.899V26.016C106.667 26.328 106.351 26.588 105.951 26.796C105.551 27.004 105.095 27.108 104.583 27.108C104.015 27.108 103.495 26.964 103.023 26.676C102.551 26.38 102.175 25.972 101.895 25.452C101.623 24.924 101.487 24.328 101.487 23.664ZM106.899 23.688C106.899 23.232 106.803 22.836 106.611 22.5C106.427 22.164 106.183 21.908 105.879 21.732C105.575 21.556 105.247 21.468 104.895 21.468C104.543 21.468 104.215 21.556 103.911 21.732C103.607 21.9 103.359 22.152 103.167 22.488C102.983 22.816 102.891 23.208 102.891 23.664C102.891 24.12 102.983 24.52 103.167 24.864C103.359 25.208 103.607 25.472 103.911 25.656C104.223 25.832 104.551 25.92 104.895 25.92C105.247 25.92 105.575 25.832 105.879 25.656C106.183 25.48 106.427 25.224 106.611 24.888C106.803 24.544 106.899 24.144 106.899 23.688ZM111.803 21.348C112.003 21.012 112.267 20.752 112.595 20.568C112.931 20.376 113.327 20.28 113.783 20.28V21.696H113.435C112.899 21.696 112.491 21.832 112.211 22.104C111.939 22.376 111.803 22.848 111.803 23.52V27H110.435V20.388H111.803V21.348Z" fill="#313144"/>
<path fill-rule="evenodd" clip-rule="evenodd" d="M164.589 20.7441C164.263 20.4186 163.736 20.4186 163.41 20.7441C163.085 21.0695 163.085 21.5972 163.41 21.9226L168.41 26.9226C168.736 27.248 169.263 27.248 169.589 26.9226L174.589 21.9226C174.914 21.5972 174.914 21.0695 174.589 20.7441C174.263 20.4186 173.736 20.4186 173.41 20.7441L168.999 25.1548L164.589 20.7441Z" fill="#313144"/>
</svg>
