<svg width="86" height="72" viewBox="0 0 86 72" fill="none" xmlns="http://www.w3.org/2000/svg">
<path d="M1.80166 25.7456C1.80166 23.8416 2.23099 22.1336 3.08966 20.6216C3.94832 19.0909 5.11499 17.8962 6.58966 17.0376C8.08299 16.1789 9.73499 15.7496 11.5457 15.7496C13.6737 15.7496 15.531 16.2629 17.1177 17.2896C18.7043 18.3162 19.8617 19.7722 20.5897 21.6576H17.5377C16.9963 20.4816 16.2123 19.5762 15.1857 18.9416C14.1777 18.3069 12.9643 17.9896 11.5457 17.9896C10.183 17.9896 8.96032 18.3069 7.87766 18.9416C6.79499 19.5762 5.94566 20.4816 5.32966 21.6576C4.71366 22.8149 4.40566 24.1776 4.40566 25.7456C4.40566 27.2949 4.71366 28.6576 5.32966 29.8336C5.94566 30.9909 6.79499 31.8869 7.87766 32.5216C8.96032 33.1562 10.183 33.4736 11.5457 33.4736C12.9643 33.4736 14.1777 33.1656 15.1857 32.5496C16.2123 31.9149 16.9963 31.0096 17.5377 29.8336H20.5897C19.8617 31.7002 18.7043 33.1469 17.1177 34.1736C15.531 35.1816 13.6737 35.6856 11.5457 35.6856C9.73499 35.6856 8.08299 35.2656 6.58966 34.4256C5.11499 33.5669 3.94832 32.3816 3.08966 30.8696C2.23099 29.3576 1.80166 27.6496 1.80166 25.7456ZM33.2306 35.7136C31.4199 35.7136 29.7679 35.2936 28.2746 34.4536C26.7812 33.5949 25.5959 32.4096 24.7186 30.8976C23.8599 29.3669 23.4306 27.6496 23.4306 25.7456C23.4306 23.8416 23.8599 22.1336 24.7186 20.6216C25.5959 19.0909 26.7812 17.9056 28.2746 17.0656C29.7679 16.2069 31.4199 15.7776 33.2306 15.7776C35.0599 15.7776 36.7212 16.2069 38.2146 17.0656C39.7079 17.9056 40.8839 19.0816 41.7426 20.5936C42.6012 22.1056 43.0306 23.8229 43.0306 25.7456C43.0306 27.6682 42.6012 29.3856 41.7426 30.8976C40.8839 32.4096 39.7079 33.5949 38.2146 34.4536C36.7212 35.2936 35.0599 35.7136 33.2306 35.7136ZM33.2306 33.5016C34.5932 33.5016 35.8159 33.1842 36.8986 32.5496C37.9999 31.9149 38.8586 31.0096 39.4746 29.8336C40.1092 28.6576 40.4266 27.2949 40.4266 25.7456C40.4266 24.1776 40.1092 22.8149 39.4746 21.6576C38.8586 20.4816 38.0092 19.5762 36.9266 18.9416C35.8439 18.3069 34.6119 17.9896 33.2306 17.9896C31.8492 17.9896 30.6172 18.3069 29.5346 18.9416C28.4519 19.5762 27.5932 20.4816 26.9586 21.6576C26.3426 22.8149 26.0346 24.1776 26.0346 25.7456C26.0346 27.2949 26.3426 28.6576 26.9586 29.8336C27.5932 31.0096 28.4519 31.9149 29.5346 32.5496C30.6359 33.1842 31.8679 33.5016 33.2306 33.5016ZM45.0951 39.2912C46.5175 38.1488 47.6319 37.2136 48.4383 36.4856C49.2447 35.7464 49.9223 34.9792 50.4711 34.184C51.0311 33.3776 51.3111 32.588 51.3111 31.8152C51.3111 31.0872 51.1319 30.516 50.7735 30.1016C50.4263 29.676 49.8607 29.4632 49.0767 29.4632C48.3151 29.4632 47.7215 29.704 47.2959 30.1856C46.8815 30.656 46.6575 31.2888 46.6239 32.084H45.1455C45.1903 30.8296 45.5711 29.8608 46.2879 29.1776C47.0047 28.4944 47.9287 28.1528 49.0599 28.1528C50.2135 28.1528 51.1263 28.472 51.7983 29.1104C52.4815 29.7488 52.8231 30.628 52.8231 31.748C52.8231 32.6776 52.5431 33.5848 51.9831 34.4696C51.4343 35.3432 50.8071 36.116 50.1015 36.788C49.3959 37.4488 48.4943 38.2216 47.3967 39.1064H53.1759V40.3832H45.0951V39.2912Z" fill="white"/>
<path d="M43.5137 21.8341L52.1739 6.83408L34.8534 6.83408L43.5137 21.8341ZM42.0137 6.55671e-08L42.0137 8.33408L45.0137 8.33407L45.0137 -6.55671e-08L42.0137 6.55671e-08Z" fill="white"/>
</svg>
