<svg width="86" height="71" viewBox="0 0 86 71" fill="none" xmlns="http://www.w3.org/2000/svg">
<path d="M0 46.6373C0 43.4683 0.7187 40.6255 2.1561 38.1089C3.5935 35.5613 5.54649 33.5729 8.01507 32.1437C10.5149 30.7146 13.2803 30 16.3114 30C19.8736 30 22.9828 30.8544 25.6389 32.5632C28.2949 34.2719 30.2323 36.6953 31.451 39.8332H26.3419C25.4357 37.8759 24.1233 36.3691 22.4047 35.3127C20.7173 34.2564 18.6862 33.7282 16.3114 33.7282C14.0303 33.7282 11.9835 34.2564 10.1712 35.3127C8.3588 36.3691 6.93702 37.8759 5.90584 39.8332C4.87466 41.7595 4.35907 44.0275 4.35907 46.6373C4.35907 49.216 4.87466 51.484 5.90584 53.4413C6.93702 55.3676 8.3588 56.8589 10.1712 57.9152C11.9835 58.9715 14.0303 59.4997 16.3114 59.4997C18.6862 59.4997 20.7173 58.9871 22.4047 57.9618C24.1233 56.9055 25.4357 55.3986 26.3419 53.4413H31.451C30.2323 56.5482 28.2949 58.956 25.6389 60.6648C22.9828 62.3425 19.8736 63.1813 16.3114 63.1813C13.2803 63.1813 10.5149 62.4823 8.01507 61.0842C5.54649 59.6551 3.5935 57.6822 2.1561 55.1656C0.7187 52.6491 0 49.8063 0 46.6373Z" fill="white"/>
<path d="M52.6117 63.2279C49.5807 63.2279 46.8152 62.5289 44.3154 61.1308C41.8156 59.7017 39.8313 57.7288 38.3627 55.2122C36.9253 52.6646 36.2066 49.8063 36.2066 46.6373C36.2066 43.4683 36.9253 40.6255 38.3627 38.1089C39.8313 35.5613 41.8156 33.5884 44.3154 32.1903C46.8152 30.7612 49.5807 30.0466 52.6117 30.0466C55.674 30.0466 58.4551 30.7612 60.9549 32.1903C63.4547 33.5884 65.4233 35.5458 66.8607 38.0623C68.2981 40.5789 69.0168 43.4372 69.0168 46.6373C69.0168 49.8373 68.2981 52.6957 66.8607 55.2122C65.4233 57.7288 63.4547 59.7017 60.9549 61.1308C58.4551 62.5289 55.674 63.2279 52.6117 63.2279ZM52.6117 59.5463C54.8928 59.5463 56.9395 59.0181 58.7519 57.9618C60.5955 56.9055 62.0329 55.3986 63.0641 53.4413C64.1265 51.484 64.6578 49.216 64.6578 46.6373C64.6578 44.0275 64.1265 41.7595 63.0641 39.8332C62.0329 37.8759 60.6112 36.3691 58.7988 35.3127C56.9864 34.2564 54.924 33.7282 52.6117 33.7282C50.2994 33.7282 48.237 34.2564 46.4246 35.3127C44.6123 36.3691 43.1749 37.8759 42.1124 39.8332C41.0813 41.7595 40.5657 44.0275 40.5657 46.6373C40.5657 49.216 41.0813 51.484 42.1124 53.4413C43.1749 55.3986 44.6123 56.9055 46.4246 57.9618C48.2683 59.0181 50.3306 59.5463 52.6117 59.5463Z" fill="white"/>
<path d="M72.4728 69.1825C74.8539 67.2811 76.7194 65.7245 78.0693 64.5129C79.4192 63.2825 80.5535 62.0056 81.4722 60.6821C82.4096 59.3399 82.8783 58.0257 82.8783 56.7395C82.8783 55.5278 82.5784 54.5771 81.9784 53.8874C81.3972 53.179 80.4504 52.8248 79.138 52.8248C77.8631 52.8248 76.8694 53.2256 76.1569 54.0272C75.4632 54.8101 75.0883 55.8633 75.032 57.1869H72.5572C72.6322 55.0991 73.2696 53.4866 74.4696 52.3495C75.6695 51.2124 77.2162 50.6438 79.1099 50.6438C81.041 50.6438 82.569 51.1751 83.6939 52.2376C84.8376 53.3002 85.4094 54.7635 85.4094 56.6276C85.4094 58.1749 84.9407 59.6848 84.0033 61.1574C83.0846 62.6115 82.0346 63.8977 80.8535 65.0162C79.6723 66.116 78.163 67.4022 76.3257 68.8749H86V71H72.4728V69.1825Z" fill="white"/>
<path d="M74 33L82.6603 18L65.3397 18L74 33ZM72.5 8.74228e-08L72.5 19.5L75.5 19.5L75.5 -8.74228e-08L72.5 8.74228e-08Z" fill="white"/>
</svg>
