<svg width="86" height="72" viewBox="0 0 86 72" fill="none" xmlns="http://www.w3.org/2000/svg">
<path d="M1.80263 25.7454C1.80263 23.8414 2.23197 22.1334 3.09063 20.6214C3.9493 19.0908 5.11597 17.8961 6.59063 17.0374C8.08397 16.1788 9.73597 15.7494 11.5466 15.7494C13.6746 15.7494 15.532 16.2628 17.1186 17.2894C18.7053 18.3161 19.8626 19.7721 20.5906 21.6574H17.5386C16.9973 20.4814 16.2133 19.5761 15.1866 18.9414C14.1786 18.3068 12.9653 17.9894 11.5466 17.9894C10.184 17.9894 8.9613 18.3068 7.87863 18.9414C6.79597 19.5761 5.94663 20.4814 5.33063 21.6574C4.71463 22.8148 4.40663 24.1774 4.40663 25.7454C4.40663 27.2948 4.71463 28.6574 5.33063 29.8334C5.94663 30.9908 6.79597 31.8868 7.87863 32.5214C8.9613 33.1561 10.184 33.4734 11.5466 33.4734C12.9653 33.4734 14.1786 33.1654 15.1866 32.5494C16.2133 31.9148 16.9973 31.0094 17.5386 29.8334H20.5906C19.8626 31.7001 18.7053 33.1468 17.1186 34.1734C15.532 35.1814 13.6746 35.6854 11.5466 35.6854C9.73597 35.6854 8.08397 35.2654 6.59063 34.4254C5.11597 33.5668 3.9493 32.3814 3.09063 30.8694C2.23197 29.3574 1.80263 27.6494 1.80263 25.7454ZM33.2315 35.7134C31.4209 35.7134 29.7689 35.2934 28.2755 34.4534C26.7822 33.5948 25.5969 32.4094 24.7195 30.8974C23.8609 29.3668 23.4315 27.6494 23.4315 25.7454C23.4315 23.8414 23.8609 22.1334 24.7195 20.6214C25.5969 19.0908 26.7822 17.9054 28.2755 17.0654C29.7689 16.2068 31.4209 15.7774 33.2315 15.7774C35.0609 15.7774 36.7222 16.2068 38.2155 17.0654C39.7089 17.9054 40.8849 19.0814 41.7435 20.5934C42.6022 22.1054 43.0315 23.8228 43.0315 25.7454C43.0315 27.6681 42.6022 29.3854 41.7435 30.8974C40.8849 32.4094 39.7089 33.5948 38.2155 34.4534C36.7222 35.2934 35.0609 35.7134 33.2315 35.7134ZM33.2315 33.5014C34.5942 33.5014 35.8169 33.1841 36.8995 32.5494C38.0009 31.9148 38.8595 31.0094 39.4755 29.8334C40.1102 28.6574 40.4275 27.2948 40.4275 25.7454C40.4275 24.1774 40.1102 22.8148 39.4755 21.6574C38.8595 20.4814 38.0102 19.5761 36.9275 18.9414C35.8449 18.3068 34.6129 17.9894 33.2315 17.9894C31.8502 17.9894 30.6182 18.3068 29.5355 18.9414C28.4529 19.5761 27.5942 20.4814 26.9595 21.6574C26.3435 22.8148 26.0355 24.1774 26.0355 25.7454C26.0355 27.2948 26.3435 28.6574 26.9595 29.8334C27.5942 31.0094 28.4529 31.9148 29.5355 32.5494C30.6369 33.1841 31.8689 33.5014 33.2315 33.5014ZM45.0961 39.291C46.5185 38.1486 47.6329 37.2134 48.4393 36.4854C49.2457 35.7462 49.9233 34.979 50.4721 34.1838C51.0321 33.3774 51.3121 32.5878 51.3121 31.815C51.3121 31.087 51.1329 30.5158 50.7745 30.1014C50.4273 29.6758 49.8617 29.463 49.0777 29.463C48.3161 29.463 47.7225 29.7038 47.2969 30.1854C46.8825 30.6558 46.6585 31.2886 46.6249 32.0838H45.1465C45.1913 30.8294 45.5721 29.8606 46.2889 29.1774C47.0057 28.4942 47.9297 28.1526 49.0609 28.1526C50.2145 28.1526 51.1273 28.4718 51.7993 29.1102C52.4825 29.7486 52.8241 30.6278 52.8241 31.7478C52.8241 32.6774 52.5441 33.5846 51.9841 34.4694C51.4353 35.343 50.8081 36.1158 50.1025 36.7878C49.3969 37.4486 48.4953 38.2214 47.3977 39.1062H53.1769V40.383H45.0961V39.291Z" fill="white"/>
<path d="M43.5139 21.8341L52.1741 6.83408L34.8536 6.83408L43.5139 21.8341ZM42.0139 6.55671e-08L42.0139 8.33408L45.0139 8.33407L45.0139 -6.55671e-08L42.0139 6.55671e-08Z" fill="white"/>
</svg>
