<svg width="86" height="72" viewBox="0 0 86 72" fill="none" xmlns="http://www.w3.org/2000/svg">
<path d="M1.80263 25.7456C1.80263 23.8416 2.23197 22.1336 3.09063 20.6216C3.9493 19.0909 5.11597 17.8962 6.59063 17.0376C8.08397 16.1789 9.73597 15.7496 11.5466 15.7496C13.6746 15.7496 15.532 16.2629 17.1186 17.2896C18.7053 18.3162 19.8626 19.7722 20.5906 21.6576H17.5386C16.9973 20.4816 16.2133 19.5762 15.1866 18.9416C14.1786 18.3069 12.9653 17.9896 11.5466 17.9896C10.184 17.9896 8.9613 18.3069 7.87863 18.9416C6.79597 19.5762 5.94663 20.4816 5.33063 21.6576C4.71463 22.8149 4.40663 24.1776 4.40663 25.7456C4.40663 27.2949 4.71463 28.6576 5.33063 29.8336C5.94663 30.9909 6.79597 31.8869 7.87863 32.5216C8.9613 33.1562 10.184 33.4736 11.5466 33.4736C12.9653 33.4736 14.1786 33.1656 15.1866 32.5496C16.2133 31.9149 16.9973 31.0096 17.5386 29.8336H20.5906C19.8626 31.7002 18.7053 33.1469 17.1186 34.1736C15.532 35.1816 13.6746 35.6856 11.5466 35.6856C9.73597 35.6856 8.08397 35.2656 6.59063 34.4256C5.11597 33.5669 3.9493 32.3816 3.09063 30.8696C2.23197 29.3576 1.80263 27.6496 1.80263 25.7456ZM33.2315 35.7136C31.4209 35.7136 29.7689 35.2936 28.2755 34.4536C26.7822 33.5949 25.5969 32.4096 24.7195 30.8976C23.8609 29.3669 23.4315 27.6496 23.4315 25.7456C23.4315 23.8416 23.8609 22.1336 24.7195 20.6216C25.5969 19.0909 26.7822 17.9056 28.2755 17.0656C29.7689 16.2069 31.4209 15.7776 33.2315 15.7776C35.0609 15.7776 36.7222 16.2069 38.2155 17.0656C39.7089 17.9056 40.8849 19.0816 41.7435 20.5936C42.6022 22.1056 43.0315 23.8229 43.0315 25.7456C43.0315 27.6682 42.6022 29.3856 41.7435 30.8976C40.8849 32.4096 39.7089 33.5949 38.2155 34.4536C36.7222 35.2936 35.0609 35.7136 33.2315 35.7136ZM33.2315 33.5016C34.5942 33.5016 35.8169 33.1842 36.8995 32.5496C38.0009 31.9149 38.8595 31.0096 39.4755 29.8336C40.1102 28.6576 40.4275 27.2949 40.4275 25.7456C40.4275 24.1776 40.1102 22.8149 39.4755 21.6576C38.8595 20.4816 38.0102 19.5762 36.9275 18.9416C35.8449 18.3069 34.6129 17.9896 33.2315 17.9896C31.8502 17.9896 30.6182 18.3069 29.5355 18.9416C28.4529 19.5762 27.5942 20.4816 26.9595 21.6576C26.3435 22.8149 26.0355 24.1776 26.0355 25.7456C26.0355 27.2949 26.3435 28.6576 26.9595 29.8336C27.5942 31.0096 28.4529 31.9149 29.5355 32.5496C30.6369 33.1842 31.8689 33.5016 33.2315 33.5016ZM45.0961 39.2912C46.5185 38.1488 47.6329 37.2136 48.4393 36.4856C49.2457 35.7464 49.9233 34.9792 50.4721 34.184C51.0321 33.3776 51.3121 32.588 51.3121 31.8152C51.3121 31.0872 51.1329 30.516 50.7745 30.1016C50.4273 29.676 49.8617 29.4632 49.0777 29.4632C48.3161 29.4632 47.7225 29.704 47.2969 30.1856C46.8825 30.656 46.6585 31.2888 46.6249 32.084H45.1465C45.1913 30.8296 45.5721 29.8608 46.2889 29.1776C47.0057 28.4944 47.9297 28.1528 49.0609 28.1528C50.2145 28.1528 51.1273 28.472 51.7993 29.1104C52.4825 29.7488 52.8241 30.628 52.8241 31.748C52.8241 32.6776 52.5441 33.5848 51.9841 34.4696C51.4353 35.3432 50.8081 36.116 50.1025 36.788C49.3969 37.4488 48.4953 38.2216 47.3977 39.1064H53.1769V40.3832H45.0961V39.2912Z" fill="white"/>
<path d="M43.5137 21.8341L52.1739 6.83408L34.8534 6.83408L43.5137 21.8341ZM42.0137 6.55671e-08L42.0137 8.33408L45.0137 8.33407L45.0137 -6.55671e-08L42.0137 6.55671e-08Z" fill="white"/>
</svg>
